<svg version="1.1" viewBox="0 0 512 512" xmlns="http://www.w3.org/2000/svg" xmlns:xlink="http://www.w3.org/1999/xlink" overflow="hidden"><g fill-rule="evenodd"><path d=" M 471.95 253.05 C 471.95 373.95 373.94 471.96 253.04 471.96 C 132.14 471.96 34.13 373.95 34.13 253.05 C 34.13 132.15 132.14 34.14 253.04 34.14 C 373.94 34.14 471.95 132.15 471.95 253.05" fill="#D98F13"/><path d=" M 256 1 C 115.17 1 1 115.17 1 256 C 1 396.83 115.17 511 256 511 C 396.83 511 511 396.83 511 256 C 511 115.17 396.83 1 256 1 M 264.827 45.931 C 385.727 45.931 483.727 143.931 483.727 264.831 C 483.727 385.731 385.727 483.731 264.827 483.731 C 143.927 483.731 45.897 385.731 45.897 264.831 C 45.897 143.931 143.927 45.931 264.827 45.931" fill-opacity="0.067"/><g fill-opacity="0.129"><path d=" M 256 4.43 C 117.06 4.43 4.43 117.06 4.43 256 C 4.43 394.94 117.06 507.57 256 507.57 C 394.94 507.57 507.57 394.94 507.57 256 C 507.57 117.06 394.94 4.43 256 4.43 M 261.885 42.986 C 382.785 42.986 480.785 140.986 480.785 261.886 C 480.785 382.786 382.785 480.786 261.885 480.786 C 140.985 480.786 42.955 382.786 42.955 261.886 C 42.955 140.986 140.985 42.986 261.885 42.986"/><path d=" M 256 8.36 C 119.23 8.36 8.36 119.23 8.36 256 C 8.36 392.77 119.23 503.64 256 503.64 C 392.77 503.64 503.64 392.77 503.64 256 C 503.64 119.23 392.77 8.36 256 8.36 M 258.942 40.051 C 379.842 40.051 477.842 138.051 477.842 258.951 C 477.842 379.851 379.842 477.851 258.942 477.851 C 138.042 477.851 40.012 379.851 40.012 258.951 C 40.012 138.051 138.042 40.051 258.942 40.051"/></g><path d=" M 253.04 7.86 C 117.62 7.86 7.85 117.64 7.85 253.05 C 7.85 388.47 117.63 498.24 253.04 498.24 C 388.46 498.24 498.23 388.46 498.23 253.05 C 498.23 117.63 388.45 7.86 253.04 7.86 M 253.04 34.157 C 373.94 34.157 471.94 132.157 471.94 253.057 C 471.94 373.957 373.94 471.957 253.04 471.957 C 132.14 471.957 34.11 373.957 34.11 253.057 C 34.11 132.157 132.14 34.157 253.04 34.157 Z" stroke="#000000" stroke-width="4.904" stroke-opacity="0.31" fill="#FFFFFF"/></g><path d=" M 159.1 113.38 L 267.11 256.01 L 159.1 398.64 L 231.37 470.91 C 238.498 471.61 245.726 471.978 253.038 471.978 C 347.818 471.978 428.528 411.738 458.968 327.458 L 244.908 113.398 L 159.098 113.398" opacity="0.25"/><path d=" M 159.1 113.38 L 267.11 256 L 159.1 398.62 L 244.91 398.62 L 352.89 256 L 244.91 113.38 Z" fill="#FFFFFF"/></svg>