<svg version="1.1" width="216.7" height="216.9" viewBox="0 0 216.7 216.9" xmlns="http://www.w3.org/2000/svg" xmlns:xlink="http://www.w3.org/1999/xlink" overflow="hidden"><g clip-rule="evenodd"><path d=" M 216.7 108.45 C 216.7 138.283 206.167 163.85 185.1 185.15 C 184.4 185.983 183.617 186.75 182.75 187.45 C 179.284 190.85 175.617 193.934 171.75 196.7 C 153.483 210.167 132.383 216.9 108.45 216.9 C 84.483 216.9 63.417 210.167 45.25 196.7 C 40.45 193.3 35.95 189.45 31.75 185.15 C 15.383 168.884 5.333 149.983 1.6 128.45 C 0.867 124.25 0.383 119.983 0.15 115.65 C 0.05 113.25 1.47105e-15 110.85 1.47105e-15 108.45 C 1.47105e-15 105.917 0.05 103.5 0.15 101.2 C 0.15 100.967 0.216 100.733 0.35 100.5 C 1.917 73.9 12.383 50.917 31.75 31.55 C 53.05 10.517 78.617 -1.77636e-14 108.45 -1.77636e-14 C 138.383 -1.77636e-14 163.934 10.517 185.1 31.55 C 206.167 52.983 216.7 78.617 216.7 108.45 Z" fill="#EEEEEE" fill-rule="evenodd"/><path d=" M 194.65 42.5 L 172.25 64.9 C 159.152 77.998 158 89.4 158 109.5 C 158 127.434 160.852 143.852 174.2 157.2 C 183.946 166.946 193.2 176.15 193.2 176.15 C 190.7 179.217 188 182.217 185.1 185.15 C 184.4 185.983 183.617 186.75 182.75 187.45 C 180.217 189.95 177.583 192.267 174.85 194.4 L 157.3 176.85 C 141.702 161.25 129.304 159.75 108.7 159.75 C 88.93 159.75 75.477 161.572 61 176.05 C 52.353 184.697 42.45 194.65 42.45 194.65 C 38.683 191.783 35.117 188.616 31.75 185.15 C 28.95 182.35 26.333 179.483 23.9 176.55 C 23.9 176.55 33.698 166.702 43.05 157.35 C 56.902 143.497 59.15 127.434 59.15 109.5 C 59.15 92 56.276 75.677 43.55 62.95 C 34.715 54.114 22.5 41.95 22.5 41.95 C 25.333 38.35 28.417 34.883 31.75 31.55 C 34.684 28.683 37.684 26 40.75 23.5 L 61.1 43.85 C 74.102 56.852 90.767 60.2 108.7 60.2 C 127.167 60.2 143.777 56.623 157.3 43.1 C 165.62 34.78 176.6 23.85 176.6 23.85 C 179.5 26.217 182.333 28.783 185.1 31.55 C 188.567 35.083 191.75 38.733 194.65 42.5 Z" fill="#3A3F51" fill-rule="evenodd"/><g><path d=" M 78.7 114 C 78.5 112.833 78.368 111.65 78.3 110.45 C 78.268 109.783 78.25 109.117 78.25 108.45 C 78.25 107.75 78.268 107.083 78.3 106.45 C 78.3 106.383 78.318 106.317 78.35 106.25 C 78.785 98.883 81.684 92.517 87.05 87.15 C 92.95 81.317 100.034 78.4 108.3 78.4 C 116.6 78.4 123.684 81.317 129.55 87.15 C 135.384 93.084 138.3 100.183 138.3 108.45 C 138.3 116.717 135.384 123.8 129.55 129.7 C 129.35 129.933 129.134 130.15 128.9 130.35 C 127.934 131.283 126.918 132.133 125.85 132.9 C 120.785 136.633 114.934 138.5 108.3 138.5 C 101.666 138.5 95.834 136.634 90.8 132.9 C 89.468 131.966 88.218 130.9 87.05 129.7 C 82.518 125.2 79.734 119.966 78.7 114 Z" fill="#00CCFF" fill-rule="evenodd"/><g stroke="#00CCFF" stroke-miterlimit="1" fill="none"><path d=" M 157.8 59.75 L 142.8 74.4 M 30.785 32.526 L 71.65 73.25 M 156.25 157.5 L 184.058 186.28 M 185.913 32.386 L 157.8 59.75 M 32.35 185.75 L 59.7 158.35" stroke-width="2"/><path d=" M 157.8 59.75 L 140.85 76.95 M 58.97 60.604 L 76.17 77.754 M 59.623 158.43 L 76.373 141.03 M 138.301 139.634 L 156.329 157.579" stroke-width="7"/></g></g></g></svg>