<svg version="1.1" width="96" height="96" viewBox="0 0 96 96" xmlns="http://www.w3.org/2000/svg" xmlns:xlink="http://www.w3.org/1999/xlink" fill="none" overflow="hidden"><linearGradient x1="48" y1="0" x2="117.5" y2="69.5" gradientUnits="userSpaceOnUse" id="a"><stop offset="0" stop-color="#C395FC"/><stop offset="1" stop-color="#4F65F5"/></linearGradient><linearGradient x1="28" y1="8" x2="28" y2="48" gradientUnits="userSpaceOnUse" id="b"><stop offset="0" stop-color="#FFFFFF" stop-opacity="0.4"/><stop offset="1" stop-color="#FFFFFF" stop-opacity="0"/></linearGradient><g fill-rule="evenodd" clip-rule="evenodd"><path d=" M 48 96 C 74.5097 96 96 74.5097 96 48 C 96 21.4903 74.5097 0 48 0 C 21.4903 0 0 21.4903 0 48 C 0 74.5097 21.4903 96 48 96 Z M 80.0001 52 C 80.0001 67.464 67.4641 80 52.0001 80 C 36.5361 80 24.0001 67.464 24.0001 52 C 24.0001 49.1303 24.4318 46.3615 25.2338 43.7548 C 27.4288 48.6165 32.3194 52 38.0001 52 C 45.7321 52 52.0001 45.732 52.0001 38 C 52.0001 32.3192 48.6166 27.4287 43.755 25.2337 C 46.3616 24.4317 49.1304 24 52.0001 24 C 67.4641 24 80.0001 36.536 80.0001 52 Z" fill="url(#a)"/><path d=" M 80.0002 52 C 80.0002 67.464 67.4642 80 52.0002 80 C 36.864 80 24.5329 67.9897 24.017 52.9791 C 24.0057 53.318 24 53.6583 24 54 C 24 70.5685 37.4315 84 54 84 C 70.5685 84 84 70.5685 84 54 C 84 37.4315 70.5685 24 54 24 C 53.6597 24 53.3207 24.0057 52.9831 24.0169 C 67.9919 24.5347 80.0002 36.865 80.0002 52 Z" fill="#131928" opacity="0.2"/><path d=" M 48 12 C 28.1177 12 12 28.1177 12 48 C 12 50.2091 10.2091 52 8 52 C 5.79086 52 4 50.2091 4 48 C 4 23.6995 23.6995 4 48 4 C 50.2091 4 52 5.79086 52 8 C 52 10.2091 50.2091 12 48 12 Z" fill="url(#b)"/></g></svg>