<svg version="1.1" width="48" height="48" xmlns="http://www.w3.org/2000/svg" xmlns:xlink="http://www.w3.org/1999/xlink" overflow="hidden"><linearGradient y1="44" x2="0" y2="4" gradientUnits="userSpaceOnUse" id="a"><stop offset="0" stop-color="#7CBAF8"/><stop offset="1" stop-color="#F4FCFF"/></linearGradient><linearGradient y1="39" x2="0" y2="9" gradientUnits="userSpaceOnUse" id="b" gradientTransform="matrix(1.02857,0,0,1.2,-5.314,-2013.52)"><stop offset="0" stop-color="#197CF1"/><stop offset="1" stop-color="#20BCFA"/></linearGradient><linearGradient x1="25.04" y1="13.01" x2="42.99" y2="30.26" gradientUnits="userSpaceOnUse" id="c"><stop offset="0" stop-color="#292C2F"/><stop offset="1" stop-color="#292C2F" stop-opacity="0"/></linearGradient><linearGradient x1="14.59" y1="18.26" x2="36.06" y2="40.44" gradientUnits="userSpaceOnUse" xlink:href="#c" id="d"></linearGradient><g stroke-width="2"><g fill-rule="evenodd"><path d=" M 44 24 C 44 35.0457 35.0457 44 24 44 C 12.9543 44 4 35.0457 4 24 C 4 12.9543 12.9543 4 24 4 C 35.0457 4 44 12.9543 44 24" fill="url(#a)"/><path d=" M 24 6 C 14.059 6 6 14.06 6 24 C 6 33.941 14.06 42 24 42 C 33.941 42 42 33.94 42 24 C 42 14.059 33.94 6 24 6 M 25 13 L 27 13 L 27 19.08 C 28.1732 18.378 29.5692 18.0011 31 17.9999 C 34.866 17.9999 38 20.6862 38 23.9999 C 38 27.3136 34.866 29.9999 31 29.9999 C 29.5685 29.997 28.1724 29.618 27 28.914 L 27 31 L 25 31 Z M 21 17 L 23 17 L 23 35 L 21 35 L 21 28.92 C 19.8268 29.622 18.4308 29.9989 17 30.0001 C 13.134 30.0001 10 27.3138 10 24.0001 C 10 20.6864 13.134 18.0001 17 18.0001 C 18.4315 18.003 19.8276 18.382 21 19.086 Z M 17 20 C 14.2386 20 12 21.7909 12 24 C 12 26.2091 14.2386 28 17 28 C 18.5759 27.9978 20.0582 27.4014 21 26.3906 L 21 21.6076 C 20.0577 20.5976 18.5754 20.002 17 20.0002 M 31 20.0002 C 29.4241 20.0024 27.9418 20.5988 27 21.6096 L 27 26.3926 C 27.9423 27.4026 29.4246 27.9982 31 28 C 33.7614 28 36 26.2091 36 24 C 36 21.7909 33.7614 20 31 20" fill="url(#b)"/></g><path d=" M 23.01 17.06 L 22.996 17.083 L 22.996 34.999 L 20.996 34.999 L 20.996 28.919 C 19.8228 29.621 18.4268 29.9979 16.996 29.9991 C 14.8841 29.9973 12.886 29.1784 11.5585 27.7706 L 11.5375 27.7916 L 27.4435 43.6956 C 32.9306 42.7282 37.7654 39.5159 40.7833 34.8323 L 34.9143 28.9633 C 33.7582 29.6358 32.3936 29.9963 30.9964 29.9984 C 29.5649 29.9955 28.1688 29.6165 26.9964 28.9125 L 26.9964 30.9985 L 24.9964 30.9985 L 24.9964 19.0455 Z" fill="url(#d)" opacity="0.2"/><path d=" M 27 13.01 L 27 19.076 C 28.1732 18.374 29.5692 17.9971 31 17.9959 C 31.3552 17.9976 31.7097 18.0224 32.0605 18.0701 Z M 35.773 19.573 L 35.75 19.596 C 35.863 19.6866 35.9724 19.7804 36.0781 19.8773 Z M 36.525 20.325 C 37.4778 21.375 37.9965 22.6666 37.9996 23.9968 C 37.9996 27.3105 34.8656 29.9968 30.9996 29.9968 C 29.568 29.9939 28.172 29.6149 26.9996 28.9109 L 26.9996 30.9969 L 25.0446 30.9969 L 34.8456 40.7979 C 39.5125 37.7773 42.7117 32.9506 43.6756 27.4756 Z" fill="url(#c)" opacity="0.2"/></g></svg>