<svg version="1.1" width="1024" height="1024" viewBox="0 0 1024 1024" xmlns="http://www.w3.org/2000/svg" xmlns:xlink="http://www.w3.org/1999/xlink" overflow="hidden"><defs><clipPath id="b"><use width="100%" height="100%" xlink:href="#a" clip-rule="evenodd"></use></clipPath><path d=" M 0 0 L 1024 0 L 1024 1024 L 0 1024 Z" id="a"/></defs><g clip-path="url(#b)"><use width="100%" height="100%" xlink:href="#a" fill="none"></use><g transform="matrix(1,0,0,1,70,21.0001)"><path d=" M 105.302 154.943 L 112.824 869.492 C 52.651 877.014 7.52158 846.927 7.52158 786.755 L 1.42109e-14 192.55 C 1.42109e-14 4.51106 172.996 -40.6184 278.298 34.5974 L 812.33 342.982 C 887.546 395.633 902.589 493.413 864.981 561.107 C 857.46 508.456 834.895 478.37 789.765 448.284 L 188.039 109.813 C 142.91 79.7268 105.302 87.2484 105.302 154.943 Z" fill="#24292E"/><path d=" M 0 376.079 C 45.1295 391.122 90.259 383.6 127.867 361.036 L 744.636 0 C 782.244 52.651 774.723 105.302 729.593 135.388 L 210.604 436.251 C 135.388 473.859 37.6079 436.251 -8.52651e-14 376.079 Z" fill="#24292E" transform="matrix(1,0,0,1,60.1725,531.021)"/><path d=" M 0 413.687 L 368.557 203.083 L 7.52157 0 Z" fill="#FFC230" transform="matrix(1,0,0,1,240.69,282.809)"/></g></g></svg>